<?xml version="1.0" encoding="UTF-8"?>
<svg width="3536px" height="614px" viewBox="0 0 3536 614" version="1.1" xmlns="http://www.w3.org/2000/svg" xmlns:xlink="http://www.w3.org/1999/xlink">
    <!-- Generator: Sketch 53.2 (72643) - https://sketchapp.com -->
    <title>alter-solutions-nearshore</title>
    <desc>Created with Sketch.</desc>
    <g id="Page-1" stroke="none" stroke-width="1" fill="none" fill-rule="evenodd">
        <g id="alter-solutions-nearshore" fill-rule="nonzero">
            <path d="M112.88,2.63 L166.31,2.63 L279.19,267.91 L218.61,267.91 L194.53,208.83 L83.16,208.83 L59.07,267.91 L0,267.91 L112.88,2.63 Z M173.88,157.63 L138.88,72.21 L103.88,157.63 L173.88,157.63 Z" id="Shape" fill="#FFFFFF"></path>
            <polygon id="Path" fill="#FFFFFF" points="319.85 4.51 377.79 4.51 377.79 215.23 509.11 215.23 509.11 267.91 319.85 267.91"></polygon>
            <polygon id="Path" fill="#FFFFFF" points="576.48 58 496.33 58 496.33 4.51 714.57 4.51 714.57 58 634.42 58 634.42 268 576.48 268"></polygon>
            <path d="M1035.69,4.51 L1156.1,4.51 C1189.59,4.51 1215.55,13.92 1232.86,31.23 C1247.53,45.91 1255.43,66.6 1255.43,91.43 L1255.43,92.19 C1255.43,134.71 1232.43,161.42 1198.99,173.84 L1263.34,267.91 L1195.6,267.91 L1139.17,183.62 L1093.63,183.62 L1093.63,267.91 L1035.69,267.91 L1035.69,4.51 Z M1152.33,132.45 C1180.55,132.45 1196.73,117.45 1196.73,95.2 L1196.73,94.44 C1196.73,69.61 1179.43,56.82 1151.21,56.82 L1093.63,56.82 L1093.63,132.45 L1152.33,132.45 Z" id="Shape" fill="#FFFFFF"></path>
            <path d="M1296.08,229.53 L1314.52,207.7 C1342,232.54 1368.33,245 1404.83,245 C1440.2,245 1463.53,226.19 1463.53,200.23 L1463.53,199.47 C1463.53,175.02 1450.36,161.09 1395.05,149.47 C1334.46,136.3 1306.62,116.73 1306.62,73.47 L1306.62,72.72 C1306.62,31.33 1343.12,0.85 1393.16,0.85 C1431.54,0.85 1459.01,11.76 1485.73,33.21 L1468.42,56.21 C1443.96,36.27 1419.5,27.62 1392.42,27.62 C1358.18,27.62 1336.36,46.43 1336.36,70.14 L1336.36,70.89 C1336.36,95.72 1349.9,109.64 1407.85,122.06 C1466.55,134.86 1493.64,156.3 1493.64,196.56 L1493.64,197.32 C1493.64,242.47 1456.01,271.82 1403.71,271.82 C1361.93,271.67 1327.69,257.75 1296.08,229.53 Z" id="Path" fill="#FFFFFF"></path>
            <path d="M1542.56,137 L1542.56,136.25 C1542.56,63.59 1597.12,0 1677.26,0 C1757.4,0 1811.26,62.84 1811.26,135.46 L1811.26,136.21 C1811.26,208.83 1756.7,272.42 1676.55,272.42 C1596.4,272.42 1542.56,209.58 1542.56,137 Z M1780.36,137 L1780.36,136.25 C1780.36,76.42 1736.71,27.51 1676.51,27.51 C1616.31,27.51 1573.41,75.67 1573.41,135.51 L1573.41,136.26 C1573.41,196.09 1617.06,245 1677.26,245 C1737.46,245 1780.36,196.79 1780.36,137 Z" id="Shape" fill="#FFFFFF"></path>
            <polygon id="Path" fill="#FFFFFF" points="1874.07 4.51 1903.79 4.51 1903.79 240.44 2052.05 240.44 2052.05 267.91 1874.05 267.91"></polygon>
            <path d="M2095.33,157.66 L2095.33,4.51 L2125.06,4.51 L2125.06,155.78 C2125.06,212.59 2155.16,244.58 2205.58,244.58 C2254.12,244.58 2284.97,215.23 2284.97,157.66 L2284.97,4.51 L2314.7,4.51 L2314.7,155.4 C2314.7,232.16 2270.7,272.05 2204.82,272.05 C2139.73,272.05 2095.33,232.16 2095.33,157.66 Z" id="Path" fill="#FFFFFF"></path>
            <polygon id="Path" fill="#FFFFFF" points="2454.69 32 2366.26 32 2366.26 4.51 2573.21 4.51 2573.21 32 2484.79 32 2484.79 267.91 2454.69 267.91"></polygon>
            <polygon id="Path" fill="#FFFFFF" points="2631.54 4.51 2661.27 4.51 2661.27 267.91 2631.54 267.91"></polygon>
            <path d="M2726.74,137 L2726.74,136.25 C2726.74,63.59 2781.3,0 2861.45,0 C2941.6,0 2995.45,62.84 2995.45,135.46 L2995.45,136.21 C2995.45,208.83 2940.9,272.42 2860.75,272.42 C2780.6,272.42 2726.74,209.58 2726.74,137 Z M2964.55,137 L2964.55,136.25 C2964.55,76.42 2920.9,27.51 2860.7,27.51 C2800.5,27.51 2757.6,75.67 2757.6,135.51 L2757.6,136.26 C2757.6,196 2801.25,245 2861.45,245 C2921.65,245 2964.55,196.79 2964.55,137 L2964.55,137 Z" id="Shape" fill="#FFFFFF"></path>
            <polygon id="Path" fill="#FFFFFF" points="3058.26 4.51 3086.1 4.51 3252 215.6 3252 4.51 3281 4.51 3281 267.91 3257.3 267.91 3087.22 51.91 3087.22 267.91 3058.22 267.91"></polygon>
            <path d="M3338.22,229.53 L3356.66,207.7 C3384.12,232.54 3410.47,244.95 3446.96,244.95 C3482.33,244.95 3505.66,226.14 3505.66,200.18 L3505.66,199.42 C3505.66,174.97 3492.49,161.04 3437.18,149.42 C3376.6,136.25 3348.75,116.68 3348.75,73.42 L3348.75,72.67 C3348.75,31.28 3385.25,0.8 3435.3,0.8 C3473.68,0.8 3501.14,11.71 3527.86,33.16 L3510.55,56.16 C3486.09,36.22 3461.64,27.57 3434.55,27.57 C3400.3,27.57 3378.48,46.38 3378.48,70.09 L3378.48,70.84 C3378.48,95.67 3392.03,109.59 3449.97,122.01 C3508.67,134.81 3535.77,156.25 3535.77,196.51 L3535.77,197.27 C3535.77,242.42 3498.14,271.77 3445.84,271.77 C3404.07,271.67 3369.83,257.75 3338.22,229.53 Z" id="Path" fill="#FFFFFF"></path>
            <rect id="Rectangle" fill="#EB272E" x="761.31" y="2.18" width="227.64" height="53.67"></rect>
            <rect id="Rectangle" fill="#EF6930" x="761.31" y="214.68" width="227.64" height="53.67"></rect>
            <rect id="Rectangle" fill="#EC3A2E" x="761.31" y="108.43" width="227.64" height="53.67"></rect>
            <polygon id="Path" fill="#FFFFFF" points="1298.82 368.07 1347.82 368.07 1461.06 516.86 1461.06 368.07 1513.53 368.07 1513.53 609.73 1468.31 609.73 1351.31 456.1 1351.31 609.73 1298.83 609.73"></polygon>
            <polygon id="Path" fill="#FFFFFF" points="1571.55 368.07 1753.83 368.07 1753.83 415.36 1624.37 415.36 1624.37 464.36 1738.29 464.36 1738.29 511.66 1624.37 511.66 1624.37 562.41 1755.55 562.41 1755.55 609.71 1571.55 609.71"></polygon>
            <path d="M1885.7,366.34 L1934.7,366.34 L2038.27,609.73 L1982.69,609.73 L1960.6,555.52 L1858.43,555.52 L1836.33,609.73 L1782.13,609.73 L1885.7,366.34 Z M1941.63,508.57 L1909.52,430.21 L1877.42,508.57 L1941.63,508.57 Z" id="Shape" fill="#FFFFFF"></path>
            <path d="M2075.57,368.07 L2186.05,368.07 C2216.77,368.07 2240.59,376.7 2256.47,392.58 C2269.94,406.04 2277.19,425.03 2277.19,447.81 L2277.19,448.5 C2277.19,487.5 2256.13,512.03 2225.4,523.42 L2284.4,609.73 L2222.25,609.73 L2170.47,532.4 L2128.7,532.4 L2128.7,609.73 L2075.53,609.73 L2075.57,368.07 Z M2182.57,485.44 C2208.46,485.44 2223.31,471.63 2223.31,451.27 L2223.31,450.58 C2223.31,427.79 2207.43,416.05 2181.54,416.05 L2128.72,416.05 L2128.72,485.44 L2182.57,485.44 Z" id="Shape" fill="#FFFFFF"></path>
            <path d="M2308.6,574.51 L2340,536.88 C2361.75,554.88 2384.54,566.23 2412.15,566.23 C2433.9,566.23 2447.02,557.6 2447.02,543.44 L2447.02,542.75 C2447.02,529.29 2438.74,522.38 2398.35,512.03 C2349.67,499.6 2318.25,486.13 2318.25,438.15 L2318.25,437.46 C2318.25,393.61 2353.47,364.61 2402.83,364.61 C2438.05,364.61 2468.08,375.66 2492.59,395.34 L2464.97,435.34 C2443.57,420.5 2422.51,411.52 2402.14,411.52 C2381.77,411.52 2371.07,420.85 2371.07,432.58 L2371.07,433.27 C2371.07,449.16 2381.43,454.33 2423.2,465.04 C2472.2,477.81 2499.84,495.42 2499.84,537.53 L2499.84,538.22 C2499.84,586.22 2463.25,613.14 2411.12,613.14 C2374.53,613.18 2337.59,600.41 2308.6,574.51 Z" id="Path" fill="#FFFFFF"></path>
            <polygon id="Path" fill="#FFFFFF" points="2546.11 368.07 2599.28 368.07 2599.28 463.69 2697.28 463.69 2697.28 368.07 2750.45 368.07 2750.45 609.73 2697.28 609.73 2697.28 512.73 2599.28 512.73 2599.28 609.73 2546.11 609.73"></polygon>
            <path d="M2797.78,489.59 L2797.78,488.9 C2797.78,420.19 2851.98,363.9 2926.55,363.9 C3001.12,363.9 3054.63,419.48 3054.63,488.19 L3054.63,488.88 C3054.63,557.58 3000.43,613.88 2925.86,613.88 C2851.29,613.88 2797.78,558.29 2797.78,489.59 Z M2999.05,489.59 L2999.05,488.9 C2999.05,447.47 2968.67,412.95 2925.86,412.95 C2883.05,412.95 2853.36,446.78 2853.36,488.21 L2853.36,488.9 C2853.36,530.32 2883.74,564.9 2926.55,564.9 C2969.36,564.9 2999.05,531 2999.05,489.59 Z" id="Shape" fill="#FFFFFF"></path>
            <path d="M3101.92,368.07 L3212.39,368.07 C3243.12,368.07 3266.94,376.7 3282.82,392.58 C3296.28,406.04 3303.53,425.03 3303.53,447.81 L3303.53,448.5 C3303.53,487.5 3282.47,512.03 3251.75,523.42 L3310.75,609.73 L3248.61,609.73 L3196.83,532.4 L3155.05,532.4 L3155.05,609.73 L3101.89,609.73 L3101.92,368.07 Z M3208.92,485.44 C3234.81,485.44 3249.66,471.63 3249.66,451.27 L3249.66,450.58 C3249.66,427.79 3233.78,416.05 3207.88,416.05 L3155.06,416.05 L3155.06,485.44 L3208.92,485.44 Z" id="Shape" fill="#FFFFFF"></path>
            <polygon id="Path" fill="#FFFFFF" points="3351.51 368.07 3533.79 368.07 3533.79 415.36 3404.33 415.36 3404.33 464.36 3518.26 464.36 3518.26 511.66 3404.33 511.66 3404.33 562.41 3535.52 562.41 3535.52 609.71 3351.52 609.71"></polygon>
        </g>
    </g>
</svg>